<svg id="Layer_1" data-name="Layer 1" xmlns="http://www.w3.org/2000/svg" xmlns:xlink="http://www.w3.org/1999/xlink" viewBox="0 0 120 120"><defs><style>.cls-1{fill:url(#linear-gradient);}.cls-2{isolation:isolate;}.cls-3{fill:#f96c4b;}.cls-4,.cls-5{fill:#fff;}.cls-5{opacity:0.15;}.cls-6{fill:#10465e;}</style><linearGradient id="linear-gradient" x1="-0.84" y1="120.34" x2="120.84" y2="-1.34" gradientUnits="userSpaceOnUse"><stop offset="0" stop-color="#10465e"/><stop offset="1" stop-color="#13526f"/></linearGradient></defs><title>S</title><rect class="cls-1" x="-1.19" y="-1" width="122.38" height="121"/><g class="cls-2"><path class="cls-3" d="M97.06,72.5a6.43,6.43,0,0,1-.14,1.32,7.24,7.24,0,0,1-.37,1.2l-.12.27c-.08.18-.16.35-.25.52l-.18.31q-.15.25-.33.51l-.18.27a10.86,10.86,0,0,1-.84,1l-.2.21a12.31,12.31,0,0,1-1,1l0,0c-.37.31-.78.63-1.21.93l-.25.18c-.44.3-.89.6-1.37.88l-.28.17c-.48.27-1,.55-1.5.81l-.11.06c-.54.27-1.12.53-1.71.79l-.37.16c-.59.25-1.19.49-1.82.72l-.33.12c-.6.21-1.22.42-1.85.62l-.25.08q-1,.31-2.1.6l-.45.13c-.73.18-1.46.36-2.22.53l-.3.06c-.71.16-1.44.3-2.18.44l-.38.07c-.78.14-1.59.26-2.4.38l-.52.07c-.83.12-1.67.22-2.53.31l-.21,0c-.82.09-1.65.16-2.49.22l-.48,0c-.87.06-1.75.11-2.64.14l-.54,0c-.93,0-1.85,0-2.79,0a80,80,0,0,1-19.18-2.2c-1-.25-2-.53-2.95-.82l-1.4-.45c-.91-.31-1.79-.64-2.63-1l-1.22-.52c-6-2.71-9.6-6.29-9.6-10.23h0V88.84c0,3.93,3.63,7.52,9.6,10.22l1.22.53c.84.35,1.72.68,2.63,1L38,101c.95.29,1.93.56,2.95.82a80,80,0,0,0,19.18,2.2c.94,0,1.86,0,2.79,0h.54c.89,0,1.77-.08,2.64-.14l.48,0c.84-.06,1.67-.13,2.49-.22l.21,0c.86-.09,1.7-.19,2.54-.31l.51-.07c.81-.12,1.62-.25,2.4-.39l.38-.07c.74-.13,1.47-.28,2.18-.43l.3-.06q1.14-.25,2.22-.54l.45-.12q1.08-.28,2.1-.6l.24-.08c.64-.2,1.26-.41,1.87-.63l.31-.11c.64-.23,1.24-.48,1.84-.73l.36-.15c.59-.26,1.17-.52,1.72-.8l.09,0c.53-.26,1-.54,1.51-.82l.28-.16c.48-.29.93-.58,1.37-.88l.25-.18c.43-.31.84-.62,1.21-.94l0,0c.38-.32.72-.66,1-1l.19-.21a10.86,10.86,0,0,0,.84-1l.05-.07c0-.06.08-.13.13-.2s.23-.34.33-.51l.18-.31c.09-.17.17-.35.25-.52a1.51,1.51,0,0,0,.09-.18l0-.09a7.87,7.87,0,0,0,.37-1.2.32.32,0,0,1,0-.09V90a6.42,6.42,0,0,0,.11-1.16Z"/><path class="cls-4" d="M60.09,57.31c20.41,0,37,6.8,37,15.19s-16.56,15.21-37,15.21-37-6.82-37-15.21S39.65,57.31,60.09,57.31Z"/></g><g class="cls-2"><path class="cls-3" d="M97.06,52.31a6.75,6.75,0,0,1-.63,2.79c-.08.17-.16.34-.25.51l-.18.31a5.69,5.69,0,0,1-.33.52l-.18.26a11,11,0,0,1-.84,1l-.2.2a14.22,14.22,0,0,1-1,1l0,0c-.37.32-.78.63-1.21.94l-.25.18c-.43.3-.89.59-1.37.88l-.28.16c-.48.28-1,.55-1.51.82l-.1.05c-.54.27-1.12.54-1.71.79l-.37.16c-.59.25-1.19.49-1.82.72l-.32.12q-.92.33-1.86.63l-.25.08q-1,.32-2.1.6l-.45.12c-.72.19-1.46.37-2.22.53l-.3.07c-.71.15-1.44.3-2.18.43l-.38.07c-.78.14-1.59.27-2.4.39l-.52.07c-.83.11-1.67.22-2.53.31l-.21,0q-1.23.12-2.49.21l-.48,0c-.87.06-1.75.1-2.64.13l-.54,0c-.93,0-1.85,0-2.79,0-20.44,0-37-6.82-37-15.21V68.64c0,8.4,16.54,15.22,37,15.22.94,0,1.86,0,2.79,0l.54,0c.89,0,1.77-.08,2.64-.13l.48,0q1.26-.09,2.49-.21l.21,0c.86-.09,1.7-.2,2.53-.31l.52-.08c.81-.11,1.62-.24,2.4-.38l.38-.07,2.18-.43.3-.07c.76-.17,1.5-.35,2.22-.53l.45-.12c.72-.19,1.42-.39,2.1-.61l.25-.07,1.86-.63.32-.12c.63-.23,1.23-.47,1.82-.72l.37-.16c.59-.26,1.17-.52,1.71-.79l.1,0c.53-.27,1-.54,1.51-.82l.28-.17c.48-.28.94-.57,1.37-.87l.25-.18c.43-.31.84-.62,1.21-.94l0,0a12.31,12.31,0,0,0,1-1c.07-.07.14-.13.2-.2a11,11,0,0,0,.84-1l.05-.06c0-.07.08-.14.13-.2s.23-.35.33-.52l.18-.31c.09-.17.17-.34.25-.51s.07-.13.09-.19v0a6.63,6.63,0,0,0,.54-2.58Z"/><path class="cls-4" d="M60.09,37.11c20.41,0,37,6.81,37,15.2s-16.56,15.21-37,15.21-37-6.82-37-15.21S39.65,37.11,60.09,37.11Z"/></g><g class="cls-2"><path class="cls-3" d="M97.06,31.12a6.58,6.58,0,0,1-.14,1.32,7.43,7.43,0,0,1-.37,1.19l-.12.28c-.08.17-.16.34-.25.51l-.18.31a5.69,5.69,0,0,1-.33.52l-.18.26a11,11,0,0,1-.84,1l-.19.2a12.63,12.63,0,0,1-1.06,1l0,0c-.38.32-.79.63-1.22.94l-.25.18c-.43.3-.89.59-1.37.88l-.28.16c-.48.28-1,.55-1.51.82l-.09.05c-.55.27-1.13.54-1.72.79l-.37.16c-.59.25-1.19.49-1.82.72l-.32.12-1.86.63-.25.07c-.68.22-1.38.42-2.1.61l-.45.12c-.72.19-1.46.36-2.22.53l-.3.07L75.07,45l-.38.07c-.78.14-1.59.27-2.4.38l-.52.08c-.83.11-1.67.22-2.53.31l-.21,0q-1.23.12-2.49.21l-.48,0c-.87.06-1.75.1-2.64.13l-.54,0c-.93,0-1.85,0-2.79,0a80,80,0,0,1-19.18-2.21c-1-.25-2-.53-2.95-.82-.48-.14-.94-.29-1.4-.45-.91-.31-1.79-.64-2.63-1l-1.22-.53c-6-2.7-9.6-6.29-9.6-10.22h0V47.45c0,3.94,3.63,7.52,9.6,10.23l1.22.53c.84.34,1.72.67,2.63,1l1.4.45c.95.29,1.93.57,2.95.82a80,80,0,0,0,19.18,2.21c.94,0,1.86,0,2.79-.05l.54,0c.89,0,1.77-.08,2.64-.13l.48,0c.84-.06,1.67-.13,2.49-.22l.21,0c.86-.09,1.7-.19,2.53-.31l.52-.07c.81-.12,1.62-.24,2.4-.38l.38-.07c.74-.14,1.47-.28,2.18-.44l.3-.06c.76-.17,1.5-.35,2.22-.53l.45-.12c.72-.2,1.42-.4,2.1-.61l.25-.08q.95-.3,1.86-.63l.32-.11c.63-.23,1.23-.47,1.82-.72l.37-.16c.59-.26,1.17-.52,1.72-.79l.09,0c.53-.27,1-.54,1.51-.82l.28-.17c.48-.28.94-.58,1.37-.88a2.2,2.2,0,0,1,.25-.17c.43-.31.84-.62,1.22-.94l0,0a12.63,12.63,0,0,0,1.06-1l.19-.2a11,11,0,0,0,.84-1l.05-.06c0-.07.08-.14.13-.2s.23-.35.33-.52l.18-.31c.09-.17.17-.34.25-.52a1.51,1.51,0,0,0,.09-.18l0-.09a7.24,7.24,0,0,0,.37-1.2.32.32,0,0,1,0-.09v-.06a6.62,6.62,0,0,0,.11-1.17Z"/><path class="cls-4" d="M60.09,15.92c20.41,0,37,6.8,37,15.2s-16.56,15.21-37,15.21-37-6.82-37-15.21S39.65,15.92,60.09,15.92Z"/></g><circle class="cls-4" cx="28.24" cy="46.47" r="1.67"/><circle class="cls-4" cx="33.48" cy="49.15" r="1.67"/><circle class="cls-4" cx="39.48" cy="51.24" r="1.67"/><circle class="cls-4" cx="28.68" cy="67.97" r="1.67"/><circle class="cls-4" cx="33.92" cy="70.65" r="1.67"/><circle class="cls-4" cx="39.92" cy="72.74" r="1.67"/><circle class="cls-4" cx="29.53" cy="88.97" r="1.67"/><circle class="cls-4" cx="34.77" cy="91.65" r="1.67"/><path class="cls-4" d="M42.45,93.74a1.68,1.68,0,1,1-1.68-1.67A1.68,1.68,0,0,1,42.45,93.74Z"/><path class="cls-5" d="M23.11,31.13h0V47.47a6.7,6.7,0,0,0,.51,2.43,6.64,6.64,0,0,0-.51,2.42h0V68.66a6.36,6.36,0,0,0,.33,1.93,6.36,6.36,0,0,0-.33,1.93V88.86c0,8.28,16.12,15,36.19,15.19V16C39.23,16.13,23.11,22.85,23.11,31.13Z"/><path class="cls-6" d="M81.14,39.84H71.71V20h3.17V37.4h6.26Zm-11.9.48-3.65-1.8a6.44,6.44,0,0,0,.92-.89q2.33-2.73,2.32-8.08,0-9.84-7.73-9.85a7.34,7.34,0,0,0-5.91,2.5c-1.55,1.83-2.32,4.51-2.32,8.06s.68,6,2.06,7.67q1.88,2.2,5.67,2.2a8.94,8.94,0,0,0,2.6-.35L68,42.55ZM57.43,35.87q-1.22-1.93-1.21-6.23,0-7.5,4.56-7.5a3.81,3.81,0,0,1,3.49,1.8q1.22,1.93,1.21,6.17,0,7.55-4.56,7.55a3.79,3.79,0,0,1-3.49-1.79m-5.94-1.53a5.27,5.27,0,0,1-1.85,4.14,7.29,7.29,0,0,1-5,1.62A10,10,0,0,1,39,38.25l.85-1.71a9.62,9.62,0,0,0,4.26,1.18A4.51,4.51,0,0,0,47,36.93,2.72,2.72,0,0,0,48,34.72c0-1.17-.82-2.18-2.33-3s-4.17-2.36-4.17-2.36a4.73,4.73,0,0,1-2.27-4.22A5,5,0,0,1,41,21.22a6.4,6.4,0,0,1,4.37-1.49,9.1,9.1,0,0,1,5,1.47l-.76,1.71a9.7,9.7,0,0,0-3.82-.82,3.41,3.41,0,0,0-2.35.73,2.47,2.47,0,0,0-.89,1.88c0,1.18.84,2.2,2.39,3.06s4.26,2.39,4.26,2.39a4.69,4.69,0,0,1,2.32,4.19"/></svg>