<svg id="Layer_1" data-name="Layer 1" xmlns="http://www.w3.org/2000/svg" viewBox="0 0 120 121"><defs><style>.cls-1{fill:#056599;}.cls-2{fill:#a5cbf0;}.cls-3{fill:#f7951e;}</style></defs><title>devops-S</title><rect class="cls-1" x="-0.9" y="-0.5" width="121.8" height="121"/><path class="cls-2" d="M109.11,63.49C106.41,73.6,88.47,93,65,60l-.68-1C35.08,17.86,10,44,10.63,58h.12C13.12,48.48,31.27,28.33,55,61.69l.34.4c29.09,40.9,52.49,15.13,54,1.41Z"/><path class="cls-3" d="M53.91,58.55c-25.68,37.61-43.1,12.63-43.1,5.09h0c-.6,10.66,20.89,41.82,51.42-1.12l1-1.22c25.36-35.65,46-10.47,46.16-2.2h0c.72-13-24.93-43.48-55.46-.55Z"/></svg>