<svg id="Layer_1" data-name="Layer 1" xmlns="http://www.w3.org/2000/svg" viewBox="0 0 120 120"><defs><style>.cls-1{fill:#4eaed8;}.cls-2{fill:#0c3656;}.cls-3{fill:#454c51;}.cls-4{fill:#fff;}.cls-5{fill:#e7e7e7;}.cls-6{fill:#84d4f6;}.cls-7{fill:#505659;}.cls-8{fill:#6d6e6e;}.cls-9{fill:#adadad;}.cls-10{fill:#b4e3f9;}.cls-11{fill:#f27671;}</style></defs><title>Informatica-s </title><rect class="cls-1" y="-1" width="120.74" height="121"/><rect class="cls-2" x="41.84" y="42.01" width="0.58" height="17.53"/><rect class="cls-2" x="29.63" y="42.01" width="12.79" height="0.58"/><rect class="cls-2" x="29.63" y="25.59" width="0.58" height="17.01"/><path class="cls-2" d="M30.89,25.59a1,1,0,1,1-1-1A1,1,0,0,1,30.89,25.59Z"/><rect class="cls-2" x="45.36" y="38.4" width="0.58" height="21.12"/><rect class="cls-2" x="33.15" y="38.4" width="12.79" height="0.58"/><rect class="cls-2" x="33.15" y="34.79" width="0.58" height="4.19"/><path class="cls-2" d="M34.41,34.79a1,1,0,1,1-1-1A1,1,0,0,1,34.41,34.79Z"/><rect class="cls-2" x="38" y="29.59" width="0.58" height="29.95"/><path class="cls-2" d="M39.26,29.59a1,1,0,1,1-1-1A1,1,0,0,1,39.26,29.59Z"/><rect class="cls-2" x="51.4" y="26.49" width="0.58" height="33.03"/><path class="cls-2" d="M52.66,26.49a1,1,0,1,1-1-1A1,1,0,0,1,52.66,26.49Z"/><rect class="cls-2" x="59.85" y="26.49" width="0.58" height="10.01"/><rect class="cls-2" x="56.48" y="35.92" width="0.58" height="23.6"/><rect class="cls-2" x="56.48" y="35.92" width="3.95" height="0.58"/><path class="cls-2" d="M61.11,26.49a1,1,0,0,1-1,1,1,1,0,1,1,1-1Z"/><rect class="cls-2" x="48.13" y="43.6" width="16.01" height="0.58"/><rect class="cls-2" x="63.56" y="30.8" width="0.58" height="13.38"/><rect class="cls-2" x="48.13" y="43.6" width="0.58" height="15.92"/><path class="cls-2" d="M64.82,30.8a1,1,0,1,1-1-1A1,1,0,0,1,64.82,30.8Z"/><rect class="cls-2" x="59.85" y="38.4" width="0.58" height="21.12"/><rect class="cls-2" x="59.85" y="38.4" width="10.48" height="0.58"/><rect class="cls-2" x="69.76" y="29.07" width="0.58" height="9.9"/><path class="cls-2" d="M71,29.07a1,1,0,1,1-1-1A1,1,0,0,1,71,29.07Z"/><rect class="cls-2" x="66.83" y="41.99" width="0.58" height="17.53"/><rect class="cls-2" x="66.83" y="41.99" width="12.61" height="0.58"/><path class="cls-2" d="M80.44,42.3a1,1,0,1,1-1-1A1,1,0,0,1,80.44,42.3Z"/><rect class="cls-2" x="73.98" y="32.74" width="0.58" height="26.78"/><rect class="cls-2" x="73.98" y="32.74" width="10.98" height="0.58"/><circle class="cls-2" cx="84.96" cy="33.03" r="0.97"/><rect class="cls-2" x="70.7" y="45.26" width="0.58" height="14.26"/><rect class="cls-2" x="70.7" y="45.26" width="16.61" height="0.58"/><rect class="cls-2" x="86.73" y="40.14" width="0.58" height="5.69"/><path class="cls-2" d="M88,40.14a1,1,0,1,1-1-1A1,1,0,0,1,88,40.14Z"/><rect class="cls-2" x="82.22" y="27.41" width="0.58" height="32.11"/><path class="cls-2" d="M83.48,27.41a1,1,0,1,1-1-1A1,1,0,0,1,83.48,27.41Z"/><rect class="cls-2" x="78.02" y="49.5" width="0.58" height="10.02"/><rect class="cls-2" x="78.02" y="49.5" width="11.62" height="0.58"/><rect class="cls-2" x="89.06" y="25.26" width="0.58" height="24.82"/><path class="cls-2" d="M90.32,25.26a1,1,0,1,1-1-1A1,1,0,0,1,90.32,25.26Z"/><path class="cls-3" d="M92.57,95a2.73,2.73,0,0,1-2.75,2.74H30.63A2.73,2.73,0,0,1,27.89,95v-.48H92.57Z"/><path class="cls-3" d="M86.59,92.73a1.74,1.74,0,0,1-1.74,1.75H35.61a1.74,1.74,0,0,1-1.75-1.75V61.26A1.74,1.74,0,0,1,34.37,60a1.77,1.77,0,0,1,1.24-.51H84.85a1.74,1.74,0,0,1,1.74,1.74Z"/><rect class="cls-4" x="36.61" y="62.26" width="47.24" height="29.47"/><rect class="cls-5" x="54.07" y="94.48" width="12.31" height="1.09"/><rect class="cls-5" x="33.86" y="95.93" width="2.74" height="0.32"/><rect class="cls-6" x="33.86" y="95.93" width="1.37" height="0.32"/><path class="cls-7" d="M60.82,60.89a.59.59,0,1,1-1.18,0,.59.59,0,1,1,1.18,0Z"/><rect class="cls-5" x="36.61" y="62.26" width="47.24" height="3.26"/><path class="cls-4" d="M39.24,63.89a.48.48,0,1,1-1,0,.48.48,0,0,1,1,0Z"/><path class="cls-4" d="M41.4,63.89a.48.48,0,1,1-.95,0,.48.48,0,0,1,.95,0Z"/><path class="cls-4" d="M43.56,63.89a.48.48,0,1,1-1,0,.48.48,0,0,1,1,0Z"/><rect class="cls-4" x="46.07" y="63.26" width="35.27" height="1.27" rx="0.51" ry="0.51"/><rect class="cls-8" x="57.77" y="69.22" width="4.87" height="0.14" transform="translate(-31.36 62.87) rotate(-45)"/><rect class="cls-8" x="61.88" y="67.52" width="6.34" height="0.14"/><path class="cls-8" d="M68.7,67.59a.48.48,0,0,1-.48.49.49.49,0,1,1,0-1A.48.48,0,0,1,68.7,67.59Z"/><rect class="cls-8" x="61.63" y="81.6" width="0.14" height="4.88" transform="translate(-41.35 68.2) rotate(-44.98)"/><rect class="cls-8" x="63.37" y="85.67" width="6.34" height="0.14"/><path class="cls-8" d="M70.2,85.75a.49.49,0,1,1-.49-.49A.49.49,0,0,1,70.2,85.75Z"/><rect class="cls-8" x="46.74" y="84.48" width="4.88" height="0.14" transform="translate(-45.37 59.5) rotate(-44.98)"/><rect class="cls-8" x="41.17" y="86.19" width="6.33" height="0.14"/><path class="cls-8" d="M40.68,86.25a.49.49,0,1,0,1,0,.49.49,0,0,0-1,0Z"/><rect class="cls-8" x="43.22" y="69.71" width="7.31" height="0.14"/><path class="cls-8" d="M42.73,69.78a.49.49,0,1,0,.49-.49A.49.49,0,0,0,42.73,69.78Z"/><path class="cls-9" d="M53.71,77.16l-3-6.09a6.68,6.68,0,0,0-3.74,7,6.78,6.78,0,0,0,7.65,5.77Z"/><path class="cls-10" d="M61.41,77.16a7.7,7.7,0,0,0-7.7-7.7v7.7l6.8,3.62A7.73,7.73,0,0,0,61.41,77.16Z"/><path class="cls-3" d="M53.71,77.16V67.06h0a10.12,10.12,0,0,0-4.43,1Z"/><path class="cls-11" d="M61.28,81.19l-7.57-4,1.19,8.5A8.6,8.6,0,0,0,61.28,81.19Z"/><rect class="cls-3" x="72.91" y="68.18" width="8.72" height="0.58"/><rect class="cls-10" x="72.91" y="71.07" width="8.72" height="0.58"/><rect class="cls-11" x="72.91" y="73.95" width="8.72" height="0.58"/><rect class="cls-9" x="72.91" y="76.84" width="8.72" height="0.58"/></svg>