<svg id="Layer_1" data-name="Layer 1" xmlns="http://www.w3.org/2000/svg" viewBox="0 0 120 120"><defs><style>.cls-1{fill:#e8e3cf;}.cls-2,.cls-3{fill:#25414d;}.cls-3,.cls-4{fill-rule:evenodd;}.cls-4{fill:#efb614;}</style></defs><title>S</title><rect class="cls-1" x="-0.9" y="-1" width="121.8" height="121"/><path class="cls-2" d="M60,67.2a24,24,0,0,0-24.05,24h0v3.43H84V91.25A24,24,0,0,0,60,67.2Z"/><circle class="cls-2" cx="28.76" cy="64.04" r="8.93"/><path class="cls-2" d="M38.14,77.85A17.17,17.17,0,0,0,11.59,92.23v2.45H34.07V91.25A24,24,0,0,1,38.14,77.85Z"/><circle class="cls-2" cx="91.24" cy="64.04" r="8.93"/><path class="cls-2" d="M81.86,77.85a17.17,17.17,0,0,1,26.55,14.38v2.45H85.93V91.25A24,24,0,0,0,81.86,77.85Z"/><path class="cls-3" d="M54.77,28.29a8.66,8.66,0,0,0-1.91,2.48,9,9,0,0,0-.49,1.15,41.22,41.22,0,0,0-2.2,11q-1.1,9.31-1.52,13.69A16.11,16.11,0,0,1,49.73,32.8a25.45,25.45,0,0,0,1-2.4c0-.14.1-.27.16-.4a17.71,17.71,0,1,0,18-.09c-.44.4-.84.79-1.21,1.16A16.12,16.12,0,0,1,70.54,57.4q1.15-6.72-5.1-24.47a2.23,2.23,0,0,1,.31-2.08q.19-.26.42-.51a14,14,0,0,1,1.22-1.22,25.88,25.88,0,0,1,2.66-2A1,1,0,0,0,70.27,26a1,1,0,0,0-.92-.66c-.65-.14-2.42.23-5.33,1.11a1.62,1.62,0,0,1-.91-.05,8.71,8.71,0,0,0-8.34,1.88Zm5.78-.62a1,1,0,0,1,0,1.91,1,1,0,1,1,0-1.91ZM69,58.61a16.11,16.11,0,0,1-19.06-.84,33.39,33.39,0,0,1,.23-4.21,7.87,7.87,0,0,0,2.67,4.87q2.93,2.05,5-2a47.32,47.32,0,0,0,2.3-16.62c0-.17,0-.35,0-.52q0-6.23-7.35-5.15c.69-2.76,1.62-4.2,2.77-4.34,1.3-.2,2,.43,2.19,1.87a2.31,2.31,0,0,0,.48,1.63,3,3,0,0,0,3.55-.52,2.79,2.79,0,0,1,2.4-.72A156.94,156.94,0,0,1,68.78,48.6a22.09,22.09,0,0,1,.17,10Z"/><path class="cls-4" d="M58.21,33.35a3,3,0,0,0,3.55-.52q-1.56,2.18-1.63,7h0c0-.17,0-.34,0-.51q0-6.23-7.35-5.15c.69-2.76,1.62-4.2,2.77-4.34,1.3-.2,2,.43,2.19,1.87a2.31,2.31,0,0,0,.48,1.63Z"/><path class="cls-4" d="M70.28,26a1.07,1.07,0,0,0-.93-.66c-.64-.14-2.42.23-5.32,1.1l2.14,3.88a12.88,12.88,0,0,1,1.23-1.21,24.51,24.51,0,0,1,2.66-2A1.05,1.05,0,0,0,70.28,26Z"/></svg>